<?xml version="1.0" encoding="UTF-8"?>
<svg id="Ebene_2" data-name="Ebene 2" xmlns="http://www.w3.org/2000/svg" width="627.54" height="298.93" viewBox="0 0 627.54 298.93">
  <g id="Ebene_1-2" data-name="Ebene 1">
    <path d="M226.36,113.26C226.35,50.69,175.82,.05,113.34,0,50.45-.05,.03,50.53,0,113.72c-.03,62.17,50.67,112.8,113,112.84,62.74,.05,113.36-50.55,113.35-113.3Z" fill="#fefefe"/>
    <path d="M226.36,113.26c0,62.75-50.62,113.35-113.35,113.3C50.67,226.52-.03,175.89,0,113.72,.03,50.53,50.45-.05,113.34,0c62.48,.05,113.01,50.69,113.01,113.26ZM113.41,5.63C54.09,5.53,5.7,53.68,5.57,112.92c-.13,59.65,47.78,107.73,107.56,107.94,58.84,.2,107.51-48.01,107.64-106.62,.13-60.07-47.75-108.51-107.35-108.61Z" fill="#01415b"/>
    <path d="M113.41,5.63c59.6,.1,107.49,48.54,107.35,108.61-.13,58.61-48.8,106.82-107.64,106.62-59.77-.2-107.68-48.29-107.56-107.94C5.7,53.68,54.09,5.53,113.41,5.63Zm18.32,152.96c22.07,0,44.15-.09,66.22,.09,3.25,.03,4.66-1.02,5.89-3.89,3.96-9.19,6.73-18.65,8.18-28.57,.51-3.48-.49-3.89-3.55-3.89-38.09,.09-76.18,.09-114.27-.01-2.62,0-4.16,.94-5.68,2.86-8.04,10.17-17.18,19.26-27.17,27.51-.81,.67-2.72,1.14-1.93,2.57,.77,1.39,1.45,3.34,3.66,3.33,.81,0,1.62,0,2.42,0,22.07,0,44.15,0,66.22,0Zm-28.15-54.35c1.88,0,3.3,0,4.71,0,16.55,0,33.1,0,49.66-.01,16.69,0,33.37-.08,50.06,.06,3.27,.03,4.65-.1,3.99-4.23-1.6-10.04-4.35-19.64-8.45-28.92-1.05-2.38-2.32-3.31-5.09-3.29-24.89,.14-49.79,.11-74.69,.03-2.48,0-3.76,.48-4.63,3.11-2.18,6.63-5.01,13.04-8.21,19.26-2.31,4.49-4.7,8.94-7.36,14Zm-30.53,72.62c-.41,1.05,.29,1.87,.64,2.67,3.52,8.06,5.76,16.5,6.95,25.17,.35,2.52,1.35,3.34,3.53,3.97,21.35,6.18,42.45,5.8,63.4-1.86,9.16-3.35,17.63-7.95,25.4-13.81,6.07-4.58,11.68-9.65,16.78-16.13H73.06ZM190.14,49.92c-6.52-7.33-12.69-13.46-20.01-18.49-11.32-7.79-23.66-12.98-37.08-15.83-2.37-.5-2.76,.15-2.84,2.22-.39,9.83-1.88,19.53-4.03,29.12-.48,2.15-.27,3.05,2.32,3.04,20.16-.1,40.32-.05,61.64-.05ZM68.34,201.87c-3.46-17.07-10.87-31.51-22.24-43.95-.63-.69-1.21-1.35-2.32-1.35-6.49,.03-12.98,.02-19.64,.02,5.17,15.52,25,35.81,44.2,45.28Z" fill="#fefefe"/>
    <path d="M75.21,104.15c15.77-20.5,25.69-43.62,30.78-68.89,1.22-6.06,2.27-12.18,2.46-18.37,.08-2.52,1-3.21,3.38-3.08,7.87,.43,7.17-1.81,6.41,7.42-2.34,28.37-11.18,54.59-26.09,78.8-11.77,19.12-26.86,35.21-44.75,48.74-1.58,1.19-3.13,1.82-5.15,1.78-5.79-.11-11.58-.22-17.36,.05-3.08,.14-4.42-.93-5.46-3.8-14.47-39.79-1-86.09,32.64-111.99,14.16-10.9,30.07-17.51,47.72-20.12,2.76-.41,3.25,.21,3.08,3.02-1.86,30.04-10.94,57.65-27.46,82.8" fill="#01415b"/>
    <path d="M131.73,158.59c-22.07,0-44.15,0-66.22,0-.81,0-1.62,0-2.42,0-2.21,0-2.9-1.94-3.66-3.33-.79-1.42,1.12-1.9,1.93-2.57,10-8.25,19.14-17.34,27.17-27.51,1.52-1.92,3.06-2.87,5.68-2.86,38.09,.1,76.18,.1,114.27,.01,3.06,0,4.06,.4,3.55,3.89-1.45,9.92-4.22,19.38-8.18,28.57-1.24,2.87-2.65,3.92-5.89,3.89-22.07-.18-44.15-.09-66.22-.1Z" fill="#019587"/>
    <path d="M103.59,104.24c2.66-5.05,5.05-9.51,7.36-14,3.2-6.22,6.03-12.62,8.21-19.26,.86-2.63,2.15-3.11,4.63-3.11,24.9,.08,49.79,.11,74.69-.03,2.77-.02,4.04,.91,5.09,3.29,4.09,9.28,6.84,18.88,8.45,28.92,.66,4.13-.72,4.25-3.99,4.23-16.69-.13-33.37-.06-50.06-.06-16.55,0-33.1,0-49.66,.01-1.42,0-2.84,0-4.71,0Z" fill="#019587"/>
    <path d="M73.06,176.86h116.71c-5.1,6.48-10.71,11.55-16.78,16.13-7.77,5.86-16.24,10.45-25.4,13.81-20.94,7.67-42.05,8.04-63.4,1.86-2.18-.63-3.19-1.45-3.53-3.97-1.19-8.67-3.43-17.11-6.95-25.17-.35-.8-1.05-1.62-.64-2.67Z" fill="#019587"/>
    <path d="M190.14,49.92c-21.32,0-41.48-.04-61.64,.05-2.59,.01-2.8-.89-2.32-3.04,2.15-9.59,3.64-19.28,4.03-29.12,.08-2.07,.47-2.73,2.84-2.22,13.41,2.86,25.75,8.04,37.08,15.83,7.32,5.03,13.5,11.16,20.01,18.49Z" fill="#019587"/>
    <path d="M68.34,201.87c-19.2-9.47-39.02-29.76-44.2-45.28,6.66,0,13.15,.02,19.64-.02,1.1,0,1.68,.65,2.32,1.35,11.37,12.44,18.78,26.88,22.24,43.95Z" fill="#01415b"/>
    <path d="M256.92,18.19c0-1.91,.52-3.43,1.56-4.57,1.04-1.14,2.52-1.71,4.43-1.71h135.45c2,0,3.55,.59,4.64,1.77s1.64,2.77,1.64,4.76V52.21c0,1.54-.55,3.02-1.64,4.42-1.09,1.41-2.69,2.11-4.78,2.11h-88.47v33.86h68.26c1.73,0,3.16,.41,4.3,1.23,1.14,.82,1.71,2.18,1.71,4.1v29.49c0,1.28-.5,2.5-1.5,3.69-1,1.18-2.46,1.78-4.37,1.78h-68.4v34.95h91.75c4.1,0,6.14,2.09,6.14,6.26v34.31c0,.91-.36,1.72-1.09,2.45-.36,2.54-2.23,3.81-5.6,3.81h-138.04c-1.82,0-3.27-.48-4.36-1.43-1.09-.96-1.63-2.43-1.63-4.44V18.19Z" fill="#01415b"/>
    <path d="M503.25,17.24c.09-.55,.39-1.14,.89-1.78,.5-.63,1.11-1.23,1.84-1.77,.73-.55,1.5-.98,2.32-1.3,.82-.32,1.59-.48,2.32-.48h34.95c1.55,0,2.87,.48,3.96,1.43,1.09,.96,1.91,1.8,2.46,2.53l3.41,7.78,71.68,184.86c.73,1.82,.59,3.3-.41,4.44-1,1.14-2.73,1.71-5.19,1.71h-39.18c-2.09,0-3.71-.39-4.85-1.16-1.14-.77-2.03-2.07-2.66-3.89-1.82-4.64-3.6-9.26-5.32-13.86-1.73-4.59-3.46-9.22-5.19-13.86h-72.5c-1.73,4.64-3.48,9.26-5.26,13.86-1.78,4.6-3.53,9.22-5.26,13.86-1.18,3.37-3.51,5.05-6.96,5.05h-40.27c-1.73,0-3.16-.45-4.3-1.37-1.14-.91-1.34-2.27-.61-4.1L503.25,17.24Zm24.85,58.43c-1.73,4.64-3.48,9.65-5.26,15.02-1.78,5.37-3.53,10.79-5.26,16.25-1.73,5.46-3.48,10.85-5.26,16.18-1.77,5.32-3.53,10.31-5.26,14.95h41.91l-20.89-62.39Z" fill="#01415b"/>
    <g>
      <path d="M35.85,287.81v-9.85c0-.88,.44-1.33,1.33-1.33h7.56c.88,0,1.33,.44,1.33,1.33v14.83c0,.69-.27,1.22-.8,1.59-2.06,1.44-4.41,2.55-7.07,3.35-2.65,.8-5.38,1.19-8.16,1.19-3.36,0-6.54-.64-9.54-1.91s-5.56-2.99-7.7-5.16c-2.13-2.17-3.83-4.74-5.08-7.73-1.25-2.99-1.87-6.13-1.87-9.42s.62-6.46,1.87-9.44c1.25-2.97,2.94-5.53,5.08-7.68,2.13-2.15,4.7-3.85,7.7-5.11s6.18-1.89,9.54-1.89c5.53,0,10.43,1.63,14.7,4.88,.66,.53,.73,1.15,.2,1.86l-4.68,6.1c-.49,.66-1.11,.75-1.86,.27-2.68-1.86-5.46-2.79-8.36-2.79-3.61,0-6.72,1.34-9.36,4.03-2.63,2.69-3.95,5.96-3.95,9.8s1.32,7.22,3.96,9.99c2.64,2.76,5.76,4.15,9.34,4.15,2.1,0,4.04-.35,5.81-1.06Z" fill="#019587"/>
      <path d="M77.68,252.48l17.02,44.09c.18,.44,.17,.81-.02,1.09-.19,.29-.53,.43-1.01,.43h-8.33c-.75,0-1.25-.37-1.49-1.09l-2.46-6.83h-17.82l-2.42,6.83c-.24,.73-.74,1.09-1.49,1.09h-8.33c-.49,0-.83-.14-1.03-.43-.2-.29-.21-.65-.03-1.09l17.12-44.09c.27-.71,.77-1.06,1.53-1.06h7.2c.77,0,1.29,.35,1.56,1.06Zm-5.67,13.67l-5.31,14.96h11.61l-5.31-14.96-.53-1.89-.46,1.89Z" fill="#019587"/>
      <path d="M110.13,298.1h-8.1c-.88,0-1.33-.44-1.33-1.33v-43.96c0-.88,.44-1.33,1.33-1.33h18.45c4.82,0,8.74,1.45,11.74,4.36,3.01,2.91,4.51,6.69,4.51,11.33,0,5.84-2.41,10.14-7.23,12.91l8.16,16.46c.24,.44,.27,.81,.08,1.11-.19,.3-.54,.45-1.04,.45h-9.29c-.75,0-1.27-.33-1.56-1l-6.63-14.23c-.4,.02-.98,.03-1.76,.03h-6v13.87c0,.88-.44,1.33-1.33,1.33Zm1.33-37.09v12.64h8.03c1.83,0,3.35-.62,4.54-1.86,1.19-1.24,1.79-2.76,1.79-4.58,0-1.97-.59-3.49-1.77-4.58-1.18-1.08-2.67-1.63-4.46-1.63h-8.13Z" fill="#019587"/>
      <path d="M162.21,298.1h-16.02c-.88,0-1.33-.44-1.33-1.33v-43.96c0-.88,.44-1.33,1.33-1.33h15.92c4.49,0,8.6,1.01,12.34,3.04,3.74,2.02,6.7,4.82,8.88,8.39,2.18,3.57,3.27,7.53,3.27,11.86s-1.08,8.29-3.25,11.88-5.12,6.39-8.84,8.41c-3.73,2.02-7.82,3.04-12.29,3.04Zm-6.6-36.3v25.98h6.97c3.78,0,6.91-1.22,9.39-3.65,2.48-2.43,3.72-5.55,3.72-9.36s-1.24-6.86-3.73-9.31c-2.49-2.44-5.63-3.67-9.44-3.67h-6.9Z" fill="#019587"/>
      <path d="M204.85,252.81v43.96c0,.88-.44,1.33-1.33,1.33h-8.1c-.88,0-1.33-.44-1.33-1.33v-43.96c0-.88,.44-1.33,1.33-1.33h8.1c.88,0,1.33,.44,1.33,1.33Z" fill="#019587"/>
      <path d="M225.35,268.44v28.33c0,.88-.44,1.33-1.33,1.33h-7.83c-.88,0-1.33-.44-1.33-1.33v-43.96c0-.88,.44-1.33,1.33-1.33h8.83c.71,0,1.24,.29,1.59,.86l18.15,27.54v-27.07c0-.88,.44-1.33,1.33-1.33h7.83c.88,0,1.33,.44,1.33,1.33v43.96c0,.88-.44,1.33-1.33,1.33h-7.86c-.69,0-1.22-.29-1.59-.86l-19.11-28.8Z" fill="#019587"/>
      <path d="M299.37,289.64v7.13c0,.88-.44,1.33-1.33,1.33h-31.45c-.88,0-1.33-.44-1.33-1.33v-43.96c0-.88,.44-1.33,1.33-1.33h30.99c.88,0,1.33,.44,1.33,1.33v7.13c0,.88-.44,1.33-1.33,1.33h-21.57v8.39h16.59c.88,0,1.33,.44,1.33,1.33v6.57c0,.88-.44,1.33-1.33,1.33h-16.59v9.42h22.03c.88,0,1.33,.44,1.33,1.33Z" fill="#019587"/>
      <path d="M317.38,268.44v28.33c0,.88-.44,1.33-1.33,1.33h-7.83c-.88,0-1.33-.44-1.33-1.33v-43.96c0-.88,.44-1.33,1.33-1.33h8.83c.71,0,1.24,.29,1.59,.86l18.15,27.54v-27.07c0-.88,.44-1.33,1.33-1.33h7.83c.88,0,1.33,.44,1.33,1.33v43.96c0,.88-.44,1.33-1.33,1.33h-7.86c-.69,0-1.22-.29-1.59-.86l-19.11-28.8Z" fill="#019587"/>
      <path d="M372.59,298.86c-3.54,0-6.87-.67-10-2.02-3.13-1.35-5.84-3.31-8.15-5.87-.55-.64-.52-1.27,.1-1.89l5.11-4.91c.64-.6,1.26-.57,1.86,.07,3.03,3.1,6.65,4.64,10.85,4.64,2.12,0,3.75-.39,4.89-1.18,1.14-.78,1.71-1.86,1.71-3.23s-.62-2.48-1.86-3.33c-1.24-.85-3.59-1.78-7.07-2.77-1.31-.38-2.53-.8-3.68-1.26-1.15-.46-2.41-1.11-3.77-1.94-1.36-.83-2.52-1.74-3.47-2.74s-1.75-2.23-2.39-3.72-.96-3.09-.96-4.81,.35-3.47,1.04-5.04c.7-1.57,1.71-2.97,3.04-4.21,1.33-1.24,3.06-2.22,5.19-2.94,2.13-.72,4.54-1.08,7.22-1.08,3.01,0,5.89,.54,8.64,1.61,2.75,1.07,5.21,2.53,7.38,4.36,.64,.55,.67,1.17,.1,1.86l-4.68,5.31c-.53,.66-1.15,.72-1.86,.17-1.28-1-2.75-1.83-4.4-2.5-1.65-.67-3.27-1.01-4.86-1.01-1.81,0-3.24,.3-4.26,.91s-1.54,1.5-1.54,2.67c0,.71,.17,1.32,.5,1.84s.87,.99,1.63,1.41c.75,.42,1.53,.79,2.32,1.09,.8,.31,1.88,.69,3.25,1.13,.35,.11,.63,.2,.83,.27,2.34,.8,4.33,1.59,5.97,2.39,1.64,.8,3.13,1.76,4.5,2.9,1.36,1.14,2.38,2.47,3.05,3.98,.67,1.52,1.01,3.26,1.01,5.23,0,4.45-1.58,8-4.74,10.65-3.16,2.65-7.33,3.98-12.51,3.98Z" fill="#019587"/>
      <path d="M431.21,289.64v7.13c0,.88-.44,1.33-1.33,1.33h-31.45c-.88,0-1.33-.44-1.33-1.33v-43.96c0-.88,.44-1.33,1.33-1.33h30.99c.88,0,1.33,.44,1.33,1.33v7.13c0,.88-.44,1.33-1.33,1.33h-21.57v8.39h16.59c.88,0,1.33,.44,1.33,1.33v6.57c0,.88-.44,1.33-1.33,1.33h-16.59v9.42h22.03c.88,0,1.33,.44,1.33,1.33Z" fill="#019587"/>
      <path d="M448.16,298.1h-8.09c-.88,0-1.33-.44-1.33-1.33v-43.96c0-.88,.44-1.33,1.33-1.33h18.45c4.82,0,8.74,1.45,11.75,4.36,3.01,2.91,4.51,6.69,4.51,11.33,0,5.84-2.41,10.14-7.23,12.91l8.16,16.46c.24,.44,.27,.81,.08,1.11-.19,.3-.54,.45-1.04,.45h-9.29c-.75,0-1.27-.33-1.56-1l-6.64-14.23c-.4,.02-.98,.03-1.76,.03h-6v13.87c0,.88-.44,1.33-1.33,1.33Zm1.33-37.09v12.64h8.03c1.83,0,3.35-.62,4.54-1.86,1.19-1.24,1.79-2.76,1.79-4.58,0-1.97-.59-3.49-1.78-4.58s-2.67-1.63-4.46-1.63h-8.13Z" fill="#019587"/>
      <path d="M521.39,253.01l-16.95,44.03c-.27,.71-.78,1.06-1.53,1.06h-6.8c-.75,0-1.26-.35-1.53-1.06l-16.99-44.03c-.18-.44-.17-.81,.02-1.09,.19-.29,.53-.43,1.01-.43h8.76c.73,0,1.23,.36,1.49,1.09l10.58,30.36,.1-.03,10.55-30.32c.22-.73,.72-1.09,1.49-1.09h8.76c.49,0,.82,.14,1.01,.43,.19,.29,.19,.65,.02,1.09Z" fill="#019587"/>
      <path d="M538.14,252.81v43.96c0,.88-.44,1.33-1.33,1.33h-8.09c-.88,0-1.33-.44-1.33-1.33v-43.96c0-.88,.44-1.33,1.33-1.33h8.09c.88,0,1.33,.44,1.33,1.33Z" fill="#019587"/>
      <path d="M569.86,298.93c-4.47,0-8.56-1.08-12.28-3.23s-6.63-5.09-8.74-8.79c-2.11-3.7-3.17-7.77-3.17-12.19,0-3.32,.62-6.46,1.87-9.44,1.25-2.97,2.94-5.53,5.08-7.68s4.7-3.84,7.7-5.09,6.18-1.88,9.54-1.88c5.6,0,10.5,1.62,14.7,4.84,.68,.53,.76,1.15,.23,1.86l-4.68,6.1c-.49,.66-1.11,.75-1.86,.27-2.68-1.84-5.47-2.75-8.39-2.75-3.6,0-6.72,1.33-9.34,4s-3.93,5.93-3.93,9.8,1.31,7.15,3.93,9.84,5.73,4.03,9.34,4.03c1.64,0,3.1-.22,4.4-.66,1.29-.44,2.65-1.17,4.06-2.19,.73-.49,1.36-.4,1.89,.27l4.58,6.14c.51,.73,.46,1.33-.13,1.79-4.31,3.32-9.25,4.98-14.8,4.98Z" fill="#019587"/>
      <path d="M626.29,289.64v7.13c0,.88-.44,1.33-1.33,1.33h-31.45c-.88,0-1.33-.44-1.33-1.33v-43.96c0-.88,.44-1.33,1.33-1.33h30.99c.88,0,1.33,.44,1.33,1.33v7.13c0,.88-.44,1.33-1.33,1.33h-21.57v8.39h16.59c.88,0,1.33,.44,1.33,1.33v6.57c0,.88-.44,1.33-1.33,1.33h-16.59v9.42h22.03c.88,0,1.33,.44,1.33,1.33Z" fill="#019587"/>
    </g>
  </g>
</svg>